Coordinates
version=1
nRows=11
nColumns=46
inDegrees=yes

Units are S.I. units (second, meters, Newtons, ...)
Angles are in degrees.

endheader
time	pelvis_tilt	pelvis_list	pelvis_rotation	pelvis_tx	pelvis_ty	pelvis_tz	bb_angle	bb_tx	bb_ty	bb_tz	hip_flexion_r	hip_adduction_r	hip_rotation_r	knee_angle_r	knee_angle_r_beta	ankle_angle_r	subtalar_angle_r	mtp_angle_r	crank_angle_r	hip_flexion_l	hip_adduction_l	hip_rotation_l	knee_angle_l	knee_angle_l_beta	ankle_angle_l	subtalar_angle_l	mtp_angle_l	crank_angle_l	lumbar_extension	lumbar_bending	lumbar_rotation	arm_flex_r	arm_add_r	arm_rot_r	elbow_flex_r	pro_sup_r	wrist_flex_r	wrist_dev_r	arm_flex_l	arm_add_l	arm_rot_l	elbow_flex_l	pro_sup_l	wrist_flex_l	wrist_dev_l
      0.00500000	    -28.57180801	      2.22859535	     -5.79317016	      0.06440649	      0.99608172	     -0.20402449	      0.00000000	      0.50000000	      0.00000000	      0.25000000	     93.68045621	     -7.21661559	     -4.75499509	     74.29512588	      1.29669456	      3.50542303	      0.96659791	      0.00000000	      0.00000000	     68.02016024	    -10.16117847	     -1.41161334	     78.38658802	      1.36810405	     -3.12369170	     -9.52246064	      0.00000000	      0.00000000	    -42.92123480	     -0.58177530	      2.41213977	     89.15317618	     -6.62649526	     26.46610575	     46.57624628	     39.89585032	      0.00000000	      0.00000000	     87.61729272	    -14.49922464	     27.72184961	     49.71164860	     41.30520060	      0.00000000	      0.00000000
      0.01000000	    -28.54009109	      2.24892166	     -5.82213601	      0.06438729	      0.99603470	     -0.20416726	      0.00000000	      0.50000000	      0.00000000	      0.25000000	     93.59976113	     -7.19481564	     -4.72465517	     74.22877744	      1.29553657	      3.60753346	      1.01304311	      0.00000000	      0.00000000	     68.04922947	    -10.20001819	     -1.49177556	     78.49042707	      1.36991638	     -3.19954471	     -9.61264477	      0.00000000	      0.00000000	    -42.94375362	     -0.60533969	      2.38626608	     89.16670972	     -6.60211713	     26.51862062	     46.49502115	     40.06578991	      0.00000000	      0.00000000	     87.52588164	    -14.53438922	     27.51065225	     49.96143165	     41.52178524	      0.00000000	      0.00000000
      0.01500000	    -28.46976704	      2.20978755	     -5.81396323	      0.06438748	      0.99615794	     -0.20434414	      0.00000000	      0.50000000	      0.00000000	      0.25000000	     93.42630465	     -7.21618513	     -4.77764765	     74.13145941	      1.29383805	      3.77343046	      1.03207755	      0.00000000	      0.00000000	     68.03440911	    -10.17624650	     -1.41911540	     78.56993082	      1.37130399	     -3.27182759	     -9.70853613	      0.00000000	      0.00000000	    -43.07177284	     -0.53237912	      2.44352898	     89.16749257	     -6.58649817	     26.26752929	     46.77693284	     40.24340798	      0.00000000	      0.00000000	     87.47137967	    -14.48858675	     27.20545501	     50.19186060	     41.68122460	      0.00000000	      0.00000000
      0.02000000	    -28.38222044	      2.16756982	     -5.76524405	      0.06452357	      0.99637952	     -0.20456505	      0.00000000	      0.50000000	      0.00000000	      0.25000000	     93.25430128	     -7.26047338	     -4.79414987	     74.07564562	      1.29286391	      3.88346871	      1.05617317	      0.00000000	      0.00000000	     67.97626383	    -10.10720940	     -1.37439841	     78.62270879	      1.37222514	     -3.39299108	     -9.87569214	      0.00000000	      0.00000000	    -43.22264919	     -0.44317774	      2.44708439	     89.16743813	     -6.60193162	     26.06525955	     46.90888689	     40.37237413	      0.00000000	      0.00000000	     87.42058556	    -14.41837659	     26.84445381	     50.54069058	     41.80902699	      0.00000000	      0.00000000
      0.02500000	    -28.48608962	      2.13919001	     -5.77145552	      0.06436781	      0.99575178	     -0.20462435	      0.00000000	      0.50000000	      0.00000000	      0.25000000	     93.37103361	     -7.23218490	     -4.76557248	     74.07998429	      1.29293964	      3.92103920	      1.18316469	      0.00000000	      0.00000000	     68.10859385	    -10.10104935	     -1.29049917	     78.64288060	      1.37257720	     -3.52242708	     -9.79487281	      0.00000000	      0.00000000	    -42.98533359	     -0.41029780	      2.37501638	     89.19501456	     -6.40627762	     26.44987960	     46.12183859	     40.34814546	      0.00000000	      0.00000000	     87.38922144	    -14.44259125	     26.98665114	     50.10434645	     41.84747584	      0.00000000	      0.00000000
      0.03000000	    -28.50943421	      2.19594957	     -5.78428701	      0.06431364	      0.99561289	     -0.20473060	      0.00000000	      0.50000000	      0.00000000	      0.25000000	     93.37193335	     -7.21326076	     -4.69666533	     74.01470639	      1.29180032	      3.90736029	      1.12740931	      0.00000000	      0.00000000	     68.17356684	    -10.09381146	     -1.34600430	     78.71637443	      1.37385991	     -3.47717466	     -9.58825011	      0.00000000	      0.00000000	    -42.93387327	     -0.47268421	      2.35888013	     89.19014122	     -6.55505910	     26.63722708	     46.14314264	     40.40568820	      0.00000000	      0.00000000	     87.52186515	    -14.44531130	     27.39414180	     49.73451276	     41.93795032	      0.00000000	      0.00000000
      0.03500000	    -28.43908317	      2.17059826	     -5.76973670	      0.06435064	      0.99566566	     -0.20493349	      0.00000000	      0.50000000	      0.00000000	      0.25000000	     93.23674467	     -7.25379418	     -4.73240160	     73.96010363	      1.29084732	      4.07325401	      1.20432279	      0.00000000	      0.00000000	     68.15134292	    -10.08610954	     -1.34310099	     78.79380111	      1.37521126	     -3.59049884	     -9.75187696	      0.00000000	      0.00000000	    -43.04868408	     -0.41062474	      2.39530946	     89.19039777	     -6.57123851	     26.43830635	     46.38709505	     40.53700482	      0.00000000	      0.00000000	     87.43080267	    -14.39180839	     27.05770015	     50.04148086	     42.06771881	      0.00000000	      0.00000000
      0.04000000	    -28.49616527	      2.21276602	     -5.77799390	      0.06431827	      0.99551848	     -0.20504864	      0.00000000	      0.50000000	      0.00000000	      0.25000000	     93.27288430	     -7.24281571	     -4.67983549	     73.90971402	      1.28996786	      4.12003567	      1.24813689	      0.00000000	      0.00000000	     68.24892281	    -10.07390753	     -1.37195985	     78.84768615	      1.37615173	     -3.61678778	     -9.70473525	      0.00000000	      0.00000000	    -42.93547396	     -0.43836117	      2.35466128	     89.19951802	     -6.51952787	     26.55712250	     46.08132523	     40.56711056	      0.00000000	      0.00000000	     87.47443961	    -14.43610194	     27.22685121	     49.80204257	     42.13009413	      0.00000000	      0.00000000
      0.04500000	    -28.47733203	      2.20210061	     -5.81911422	      0.06430889	      0.99542941	     -0.20508347	      0.00000000	      0.50000000	      0.00000000	      0.25000000	     93.22387249	     -7.19814611	     -4.69668404	     73.85681169	      1.28904454	      4.05333082	      1.12604535	      0.00000000	      0.00000000	     68.27413212	    -10.15058752	     -1.38170468	     78.94920218	      1.37792352	     -3.49052094	     -9.35354190	      0.00000000	      0.00000000	    -42.92559897	     -0.46524568	      2.47093460	     89.19448941	     -6.78068941	     26.75624136	     46.26734082	     40.57501690	      0.00000000	      0.00000000	     87.61195981	    -14.47269691	     27.92098483	     49.38820806	     42.24751210	      0.00000000	      0.00000000
      0.05000000	    -28.47472699	      2.22706968	     -5.80430080	      0.06429962	      0.99539233	     -0.20519476	      0.00000000	      0.50000000	      0.00000000	      0.25000000	     93.20153416	     -7.21754806	     -4.66634848	     73.83135364	      1.28860021	      4.15157913	      1.19066437	      0.00000000	      0.00000000	     68.30298063	    -10.12948292	     -1.40919400	     78.98444914	      1.37853870	     -3.55714614	     -9.43419009	      0.00000000	      0.00000000	    -42.92600713	     -0.47666219	      2.43609780	     89.19275302	     -6.75040648	     26.75414320	     46.23301298	     40.59867405	      0.00000000	      0.00000000	     87.60360776	    -14.43084961	     27.66592442	     49.50735004	     42.34223746	      0.00000000	      0.00000000
      0.05500000	    -28.51039753	      2.26214909	     -5.82616266	      0.06432850	      0.99534982	     -0.20535479	      0.00000000	      0.50000000	      0.00000000	      0.25000000	     93.21968913	     -7.21458754	     -4.63593126	     73.78998738	      1.28787823	      4.19998184	      1.28141825	      0.00000000	      0.00000000	     68.35061335	    -10.12209812	     -1.45636875	     79.00078319	      1.37882378	     -3.65771231	     -9.53824350	      0.00000000	      0.00000000	    -42.88394503	     -0.49728054	      2.38664828	     89.18960858	     -6.62670428	     26.65948235	     46.11442509	     40.65023847	      0.00000000	      0.00000000	     87.51374630	    -14.37126644	     27.32510345	     49.67604816	     42.41779627	      0.00000000	      0.00000000
